<?xml version="1.0" encoding="UTF-8"?>
<!DOCTYPE svg PUBLIC "-//W3C//DTD SVG 1.1//EN" "http://www.w3.org/Graphics/SVG/1.1/DTD/svg11.dtd">
<svg xmlns="http://www.w3.org/2000/svg" version="1.1" width="1024px" height="1024px"
    style="shape-rendering:geometricPrecision; text-rendering:geometricPrecision; image-rendering:optimizeQuality; fill-rule:evenodd; clip-rule:evenodd"
    xmlns:xlink="http://www.w3.org/1999/xlink">
    <g>
        <path style="opacity:1" fill="#0198fe"
            d="M 417.5,268.5 C 424.136,270.43 431.136,271.764 438.5,272.5C 440.974,274.24 443.641,275.74 446.5,277C 452.935,278.63 459.269,280.464 465.5,282.5C 472.601,285.552 479.268,289.385 485.5,294C 495.331,301.667 504.997,309.501 514.5,317.5C 516.695,321.21 519.528,324.543 523,327.5C 523.192,329.577 523.692,331.577 524.5,333.5C 526.201,334.802 527.368,336.469 528,338.5C 528.667,342.833 528.667,347.167 528,351.5C 524.791,355.984 522.624,360.984 521.5,366.5C 518.566,370.773 515.233,374.773 511.5,378.5C 508.495,378.25 506.662,379.583 506,382.5C 504.475,385.087 502.308,385.92 499.5,385C 501.378,383.007 501.712,380.841 500.5,378.5C 499.149,382.027 496.815,384.694 493.5,386.5C 496.174,387.499 496.841,389.166 495.5,391.5C 491.489,392.838 487.489,394.172 483.5,395.5C 481.588,395.512 479.588,395.179 477.5,394.5C 476.614,395.325 476.281,396.325 476.5,397.5C 475.167,397.5 473.833,397.5 472.5,397.5C 467.433,397.311 462.766,395.811 458.5,393C 448.161,383.187 437.161,374.354 425.5,366.5C 422.742,364.245 423.076,362.412 426.5,361C 422.509,361.158 418.509,361.658 414.5,362.5C 404.096,360.334 394.096,361.334 384.5,365.5C 382.433,366.767 380.766,368.433 379.5,370.5C 378.167,370.5 376.833,370.5 375.5,370.5C 375.649,371.552 375.483,372.552 375,373.5C 373.494,375.174 371.661,376.174 369.5,376.5C 369.649,375.448 369.483,374.448 369,373.5C 367.476,376.61 366.642,379.944 366.5,383.5C 361.627,384.41 359.96,387.243 361.5,392C 360.128,394.515 359.128,397.182 358.5,400C 358.833,400.333 359.167,400.667 359.5,401C 358.643,401.689 357.977,402.522 357.5,403.5C 357.948,408.528 358.948,412.695 360.5,416C 360.333,417.167 360.167,418.333 360,419.5C 358.633,418.476 357.8,418.976 357.5,421C 358.424,422.811 359.257,422.645 360,420.5C 361.202,422.677 361.702,425.011 361.5,427.5C 363.988,427.683 365.988,428.683 367.5,430.5C 367.249,433.498 368.249,435.998 370.5,438C 370.265,438.873 369.931,439.707 369.5,440.5C 370.716,441.096 372.049,441.263 373.5,441C 372.549,441.718 372.383,442.551 373,443.5C 374.572,445.563 376.405,446.229 378.5,445.5C 379.842,447.005 381.508,447.672 383.5,447.5C 383.238,448.978 383.571,450.311 384.5,451.5C 388.22,452.693 391.554,454.36 394.5,456.5C 393.513,459.246 394.347,461.579 397,463.5C 397.333,463.167 397.667,462.833 398,462.5C 398.483,463.448 398.649,464.448 398.5,465.5C 400.58,466.044 402.58,466.878 404.5,468C 411.949,474.69 420.283,481.024 429.5,487C 430.594,488.78 431.594,490.614 432.5,492.5C 438.058,495.686 442.892,499.686 447,504.5C 447.333,505.833 447.667,507.167 448,508.5C 448.333,508.167 448.667,507.833 449,507.5C 450.655,507.802 451.988,509.136 453,511.5C 453.333,511.167 453.667,510.833 454,510.5C 457.948,513.114 461.281,516.448 464,520.5C 465.626,520.146 467.459,520.146 469.5,520.5C 469.215,522.288 469.548,523.955 470.5,525.5C 471.965,524.391 472.965,524.891 473.5,527C 477.334,527.593 479.334,529.759 479.5,533.5C 482.462,533.117 483.462,534.117 482.5,536.5C 486.24,540.025 490.573,542.525 495.5,544C 498.081,546.65 500.748,549.316 503.5,552C 504.448,552.483 505.448,552.649 506.5,552.5C 506.67,553.822 506.337,554.989 505.5,556C 509.205,556.04 511.372,557.873 512,561.5C 512.414,561.043 512.914,560.709 513.5,560.5C 514.298,562.078 514.798,563.744 515,565.5C 516,564.833 517,564.167 518,563.5C 519.878,565.043 521.378,566.876 522.5,569C 524.134,569.494 525.801,569.66 527.5,569.5C 527.966,571.201 527.966,572.701 527.5,574C 528.416,574.374 529.25,574.874 530,575.5C 531.626,575.146 533.459,575.146 535.5,575.5C 535.762,577.564 536.929,578.897 539,579.5C 539.483,580.448 539.649,581.448 539.5,582.5C 540.552,582.351 541.552,582.517 542.5,583C 543.352,585.362 544.852,587.195 547,588.5C 547.456,589.744 546.956,590.577 545.5,591C 547.377,591.576 549.211,591.409 551,590.5C 556.053,593.845 560.22,598.012 563.5,603C 565.714,604.273 568.047,605.273 570.5,606C 571.332,610.39 573.999,612.557 578.5,612.5C 578.33,613.822 578.663,614.989 579.5,616C 581.436,616.813 583.436,617.313 585.5,617.5C 586.63,619.315 587.296,621.315 587.5,623.5C 591.093,626.067 594.76,628.733 598.5,631.5C 599.795,633.328 600.795,635.328 601.5,637.5C 606.41,638.514 610.243,641.514 613,646.5C 613.333,646.167 613.667,645.833 614,645.5C 617.216,647.193 620.383,649.027 623.5,651C 624.793,651.49 626.127,651.657 627.5,651.5C 628.641,653.229 630.307,654.229 632.5,654.5C 645.07,656.814 657.07,655.481 668.5,650.5C 669.167,650.833 669.833,651.167 670.5,651.5C 673.971,645.523 678.804,641.19 685,638.5C 685.514,635.972 686.68,633.805 688.5,632C 687.709,629.25 687.709,626.417 688.5,623.5C 689.473,623.013 690.473,622.513 691.5,622C 690.82,613.197 690.154,604.364 689.5,595.5C 689.709,594.914 690.043,594.414 690.5,594C 686.708,589.914 684.374,585.081 683.5,579.5C 682.127,579.657 680.793,579.49 679.5,579C 674.638,573.475 669.804,567.975 665,562.5C 664.667,562.833 664.333,563.167 664,563.5C 663.689,562.258 664.189,561.258 665.5,560.5C 663.939,559.653 662.439,559.986 661,561.5C 659.392,559.9 657.559,558.567 655.5,557.5C 654.943,555.765 654.61,554.098 654.5,552.5C 652.177,553.672 649.844,553.672 647.5,552.5C 646.193,551.198 646.193,549.865 647.5,548.5C 647.023,547.522 646.357,546.689 645.5,546C 643.613,546.423 641.613,546.256 639.5,545.5C 637.775,539.692 633.775,536.192 627.5,535C 625.748,532.666 623.581,530.833 621,529.5C 619.495,527.702 619.328,525.868 620.5,524C 620,523.5 619.5,523 619,522.5C 615.684,524.069 612.851,523.402 610.5,520.5C 609.329,518.158 608.162,515.824 607,513.5C 605.506,514.747 604.006,514.747 602.5,513.5C 599.089,508.298 594.422,504.798 588.5,503C 587.781,500.444 586.114,499.277 583.5,499.5C 580.749,495.951 578.583,491.951 577,487.5C 576.667,488.167 576.333,488.833 576,489.5C 574.806,487.475 573.306,487.141 571.5,488.5C 570.719,487.271 570.219,485.938 570,484.5C 569.282,485.451 568.449,485.617 567.5,485C 566.277,482.948 565.277,480.781 564.5,478.5C 563.817,478.137 563.15,477.804 562.5,477.5C 562.704,471.404 562.704,465.404 562.5,459.5C 563.727,458.41 564.56,457.076 565,455.5C 565.333,455.833 565.667,456.167 566,456.5C 567.092,453.956 567.759,451.289 568,448.5C 569.612,451.079 571.112,451.079 572.5,448.5C 570.342,446.974 570.675,445.474 573.5,444C 574.996,443.493 576.163,443.993 577,445.5C 578,443.167 579.667,441.5 582,440.5C 582.442,438.386 581.609,437.052 579.5,436.5C 601.833,413.5 624.5,390.833 647.5,368.5C 649.203,367.34 649.869,368.007 649.5,370.5C 650.5,370.5 651.5,370.5 652.5,370.5C 651.833,368.181 651.666,365.847 652,363.5C 654.786,360.217 657.953,357.551 661.5,355.5C 662.672,355.919 663.672,356.585 664.5,357.5C 665.364,355.803 666.697,354.637 668.5,354C 669.667,351.5 671.5,349.667 674,348.5C 674.617,347.551 674.451,346.718 673.5,346C 674.678,345.033 676.011,344.533 677.5,344.5C 676.975,343.808 676.308,343.308 675.5,343C 675.982,341.992 676.148,340.825 676,339.5C 679.833,335.667 683.667,331.833 687.5,328C 689.582,328.932 691.915,329.432 694.5,329.5C 694.587,326.402 694.087,326.068 693,328.5C 691.272,326.806 691.772,325.639 694.5,325C 692.068,323.913 692.402,323.413 695.5,323.5C 695.351,322.448 695.517,321.448 696,320.5C 704.454,312.552 712.287,304.219 719.5,295.5C 720.5,293.833 721.833,292.5 723.5,291.5C 725.954,288.542 728.954,287.875 732.5,289.5C 732.669,288.603 733.002,287.603 733.5,286.5C 736.391,285.994 739.058,284.994 741.5,283.5C 742.696,283.846 742.696,284.346 741.5,285C 743.978,287.333 746.311,287.499 748.5,285.5C 750.729,286.577 753.063,287.244 755.5,287.5C 756.135,290.126 757.135,292.626 758.5,295C 756.894,297.992 757.228,300.659 759.5,303C 758.978,303.561 758.645,304.228 758.5,305C 759.996,310.383 760.663,315.883 760.5,321.5C 759.664,333.518 758.664,345.518 757.5,357.5C 756.069,358.903 754.902,360.569 754,362.5C 752.977,370.071 750.477,377.071 746.5,383.5C 745.141,385.692 743.308,387.359 741,388.5C 739.89,390.942 738.39,393.109 736.5,395C 737.833,396.84 737.666,397.34 736,396.5C 735.682,398.061 734.849,399.228 733.5,400C 734.649,402.459 734.649,404.959 733.5,407.5C 731.717,408.114 730.384,409.28 729.5,411C 728.552,411.483 727.552,411.649 726.5,411.5C 726.5,412.5 726.5,413.5 726.5,414.5C 724.876,414.64 723.71,413.973 723,412.5C 721.148,414.23 721.314,415.396 723.5,416C 723.018,417.008 722.852,418.175 723,419.5C 722.333,418.167 721.667,418.167 721,419.5C 719.807,417.557 718.307,417.724 716.5,420C 717.448,420.483 718.448,420.649 719.5,420.5C 719.649,421.552 719.483,422.552 719,423.5C 716.606,425.723 714.439,428.057 712.5,430.5C 711.167,432.5 709.5,434.167 707.5,435.5C 703.494,437.843 699.827,440.676 696.5,444C 694.393,445.264 693.393,447.097 693.5,449.5C 686.001,456.951 685.667,464.618 692.5,472.5C 692.913,474.89 693.579,477.223 694.5,479.5C 697.479,478.644 698.812,479.977 698.5,483.5C 705.315,485.27 710.481,489.27 714,495.5C 714.333,495.167 714.667,494.833 715,494.5C 716.067,495.191 717.234,495.691 718.5,496C 720.551,498.02 722.884,499.52 725.5,500.5C 732.795,505.794 739.795,511.461 746.5,517.5C 747.802,519.69 749.469,521.69 751.5,523.5C 750.098,524.842 750.431,525.676 752.5,526C 751.833,526.333 751.167,526.667 750.5,527C 751.191,528.067 751.691,529.234 752,530.5C 752.414,530.043 752.914,529.709 753.5,529.5C 754.395,531.307 755.728,532.64 757.5,533.5C 758.442,533.392 759.275,533.059 760,532.5C 760.65,535.784 761.816,538.784 763.5,541.5C 766.292,541.452 768.125,542.785 769,545.5C 771.403,550.975 773.236,556.642 774.5,562.5C 775.167,562.167 775.833,561.833 776.5,561.5C 777.298,563.078 777.798,564.744 778,566.5C 779.57,567.614 780.903,568.947 782,570.5C 782.332,575.518 783.665,580.184 786,584.5C 787.552,591.66 787.719,598.826 786.5,606C 787.746,610.525 788.412,615.192 788.5,620C 787.59,628.777 786.924,637.611 786.5,646.5C 785.735,647.66 784.735,648.66 783.5,649.5C 782.477,657.073 779.977,664.073 776,670.5C 775.29,669.027 774.124,668.36 772.5,668.5C 772.244,670.792 772.577,672.959 773.5,675C 772.493,679.501 770.827,683.668 768.5,687.5C 767.153,688.171 765.986,688.171 765,687.5C 764.517,688.448 764.351,689.448 764.5,690.5C 763.325,690.281 762.325,690.614 761.5,691.5C 760.768,695.656 758.768,699.49 755.5,703C 753.563,705.435 751.73,705.602 750,703.5C 747.515,704.987 745.348,706.821 743.5,709C 746.433,713.051 745.933,713.884 742,711.5C 740.989,712.337 739.822,712.67 738.5,712.5C 737.535,715.298 737.035,717.964 737,720.5C 734.632,722.911 731.965,723.911 729,723.5C 728.51,724.793 728.343,726.127 728.5,727.5C 726.833,727.5 725.167,727.5 723.5,727.5C 723.567,728.959 723.234,730.292 722.5,731.5C 720.801,731.34 719.134,731.506 717.5,732C 713.456,735.35 709.123,738.183 704.5,740.5C 702.11,742.02 699.443,743.02 696.5,743.5C 684.833,745.4 673.167,747.234 661.5,749C 649.646,749.317 637.979,749.484 626.5,749.5C 625.833,749.167 625.167,748.833 624.5,748.5C 624.611,747.883 624.944,747.383 625.5,747C 622.833,746.667 620.167,746.333 617.5,746C 606.282,742.317 595.616,737.65 585.5,732C 583.866,731.506 582.199,731.34 580.5,731.5C 579.833,731.5 579.5,731.167 579.5,730.5C 579.297,728.61 579.963,727.11 581.5,726C 580.282,724.584 578.949,724.751 577.5,726.5C 576.833,726.333 576.167,726.167 575.5,726C 574.833,724 573.5,722.667 571.5,722C 572.624,721.751 573.624,721.251 574.5,720.5C 572.716,719.394 570.882,719.394 569,720.5C 566.077,719.45 564.91,717.617 565.5,715C 564.833,714.667 564.167,714.333 563.5,714C 564.784,713.316 565.951,713.483 567,714.5C 567.72,712.888 567.554,711.388 566.5,710C 564.231,709.242 562.064,709.409 560,710.5C 558.019,708.641 557.019,706.308 557,703.5C 555.33,703.344 553.663,704.01 552,705.5C 550.477,703.646 548.644,702.146 546.5,701C 547.451,700.282 547.617,699.449 547,698.5C 545.301,699.406 543.467,699.739 541.5,699.5C 540.486,696.308 538.486,693.808 535.5,692C 534.207,691.51 532.873,691.343 531.5,691.5C 531.5,690.5 531.5,689.5 531.5,688.5C 530.167,688.5 528.833,688.5 527.5,688.5C 521.439,684.618 515.773,680.118 510.5,675C 503.315,670.008 496.649,670.508 490.5,676.5C 489.127,676.343 487.793,676.51 486.5,677C 485.286,679.674 483.953,682.174 482.5,684.5C 481.325,684.281 480.325,684.614 479.5,685.5C 478.63,687.526 477.13,688.859 475,689.5C 474.846,692.525 473.346,694.191 470.5,694.5C 470.5,695.833 470.5,697.167 470.5,698.5C 463.69,706.984 455.69,713.984 446.5,719.5C 437.809,723.928 428.976,728.261 420,732.5C 415.204,729.669 414.371,730.669 417.5,735.5C 414.345,737.076 411.012,738.076 407.5,738.5C 398.587,740.374 389.587,741.708 380.5,742.5C 363.132,742.729 345.798,741.729 328.5,739.5C 324.469,737.973 320.469,736.14 316.5,734C 317.624,733.751 318.624,733.251 319.5,732.5C 317.56,731.472 315.56,731.472 313.5,732.5C 311.647,731.811 310.481,730.478 310,728.5C 309.667,728.833 309.333,729.167 309,729.5C 306.017,728.083 302.85,727.25 299.5,727C 296.338,724.506 293.171,722.006 290,719.5C 288.234,718.767 286.401,718.433 284.5,718.5C 280.18,714.952 276.513,710.619 273.5,705.5C 272.522,705.023 271.689,704.357 271,703.5C 269.022,704.816 267.522,704.316 266.5,702C 267.624,701.751 268.624,701.251 269.5,700.5C 265.994,701.127 262.66,700.461 259.5,698.5C 252.602,693.78 246.102,688.447 240,682.5C 239.209,681.255 238.709,679.922 238.5,678.5C 235.158,669.029 234.658,659.362 237,649.5C 241.518,644.699 245.185,639.365 248,633.5C 251.375,631.295 254.875,629.295 258.5,627.5C 259.953,625.533 260.953,623.367 261.5,621C 263.367,620.289 264.867,620.789 266,622.5C 266.903,621.299 268.069,620.465 269.5,620C 263.56,620.302 262.893,618.635 267.5,615C 272.186,613.239 277.686,611.739 284,610.5C 287.49,610.999 290.99,611.332 294.5,611.5C 299.237,614.043 303.903,616.877 308.5,620C 311.122,621.913 312.122,624.246 311.5,627C 312.469,628.758 313.636,629.258 315,628.5C 315.75,629.126 316.584,629.626 317.5,630C 321.602,634.223 325.935,638.223 330.5,642C 333.991,642.834 336.991,644.5 339.5,647C 341.81,647.497 344.143,647.663 346.5,647.5C 347.6,648.558 348.934,649.392 350.5,650C 356.015,650.74 361.515,651.574 367,652.5C 368.366,652.294 369.699,651.96 371,651.5C 371.945,651.905 372.612,652.572 373,653.5C 374.325,651.007 376.491,649.84 379.5,650C 380.877,647.692 382.877,646.192 385.5,645.5C 387.938,644.069 389.604,642.069 390.5,639.5C 390.833,639.5 391.167,639.5 391.5,639.5C 395.099,637.737 397.932,635.07 400,631.5C 401.746,627.673 403.746,624.007 406,620.5C 406.978,616.44 408.145,612.44 409.5,608.5C 407.515,599.492 405.181,590.492 402.5,581.5C 401.325,581.719 400.325,581.386 399.5,580.5C 398.917,578.998 398.084,577.665 397,576.5C 396.845,574.144 396.845,571.811 397,569.5C 396.667,569.167 396.333,568.833 396,568.5C 394.887,570.329 393.387,571.163 391.5,571C 389.854,567.69 387.52,565.023 384.5,563C 385.5,562.167 386.5,561.333 387.5,560.5C 385.784,560.003 384.117,559.669 382.5,559.5C 381.476,560.853 380.143,561.52 378.5,561.5C 374.122,558.641 370.122,555.308 366.5,551.5C 365.19,549.852 363.857,548.186 362.5,546.5C 363.5,545.833 364.5,545.167 365.5,544.5C 365.291,543.914 364.957,543.414 364.5,543C 363.167,543.333 361.833,543.667 360.5,544C 358.511,541.334 355.844,539.667 352.5,539C 350.427,534.753 347.093,532.253 342.5,531.5C 337.868,528.202 333.534,524.536 329.5,520.5C 328.641,518.894 328.474,517.227 329,515.5C 327.391,514.853 325.891,514.02 324.5,513C 325.5,512.667 326.5,512.333 327.5,512C 324.833,511.667 322.167,511.333 319.5,511C 313.554,506.553 307.388,501.386 301,495.5C 301.305,493.557 301.305,491.557 301,489.5C 298.034,492.265 295.367,491.932 293,488.5C 292.316,487.216 292.483,486.049 293.5,485C 290.81,483.428 288.477,481.428 286.5,479C 287.115,476.532 286.282,474.366 284,472.5C 283.667,473.167 283.333,473.833 283,474.5C 282.28,472.944 281.113,471.944 279.5,471.5C 277.076,468.992 275.41,465.992 274.5,462.5C 274.657,461.127 274.49,459.793 274,458.5C 271.575,453.022 269.075,447.688 266.5,442.5C 262.158,420.279 261.491,397.945 264.5,375.5C 265.358,369.26 267.025,363.26 269.5,357.5C 270.496,357.586 271.329,357.252 272,356.5C 272.366,351.509 274.866,348.509 279.5,347.5C 279.819,351.3 280.819,351.466 282.5,348C 280.82,347.653 279.82,346.653 279.5,345C 280.633,341.222 282.633,338.055 285.5,335.5C 284.472,333.44 284.472,331.44 285.5,329.5C 288.477,328.407 290.477,326.907 291.5,325C 291.146,323.374 291.146,321.541 291.5,319.5C 297.991,313.509 304.325,307.342 310.5,301C 311.784,300.316 312.951,300.483 314,301.5C 314.273,299.899 314.773,298.399 315.5,297C 317.615,297.855 319.948,298.355 322.5,298.5C 322.343,297.127 322.51,295.793 323,294.5C 323.333,294.833 323.667,295.167 324,295.5C 325.582,294.04 326.915,292.373 328,290.5C 330.416,294.545 331.916,294.212 332.5,289.5C 330.058,289.881 329.391,289.214 330.5,287.5C 336.182,284.995 341.516,281.995 346.5,278.5C 349.577,278.653 352.411,277.986 355,276.5C 357.3,277.775 359.467,277.441 361.5,275.5C 363.323,276.747 365.323,277.414 367.5,277.5C 368.167,275.5 368.833,273.5 369.5,271.5C 385.381,268.94 401.381,267.94 417.5,268.5 Z" />
    </g>
    <g>
        <path style="opacity:0.927" fill="#2f95da"
            d="M 417.5,268.5 C 424.843,268.666 431.843,269.999 438.5,272.5C 431.136,271.764 424.136,270.43 417.5,268.5 Z" />
    </g>
    <g>
        <path style="opacity:1" fill="#2798e6"
            d="M 417.5,268.5 C 401.381,267.94 385.381,268.94 369.5,271.5C 368.833,273.5 368.167,275.5 367.5,277.5C 365.323,277.414 363.323,276.747 361.5,275.5C 359.467,277.441 357.3,277.775 355,276.5C 352.411,277.986 349.577,278.653 346.5,278.5C 369.247,268.532 392.914,265.198 417.5,268.5 Z" />
    </g>
    <g>
        <path style="opacity:1" fill="#2697df"
            d="M 438.5,272.5 C 448.087,274.469 457.087,277.802 465.5,282.5C 459.269,280.464 452.935,278.63 446.5,277C 443.641,275.74 440.974,274.24 438.5,272.5 Z" />
    </g>
    <g>
        <path style="opacity:1" fill="#2297e8"
            d="M 755.5,287.5 C 753.063,287.244 750.729,286.577 748.5,285.5C 746.311,287.499 743.978,287.333 741.5,285C 742.696,284.346 742.696,283.846 741.5,283.5C 739.058,284.994 736.391,285.994 733.5,286.5C 733.002,287.603 732.669,288.603 732.5,289.5C 728.954,287.875 725.954,288.542 723.5,291.5C 728.962,283.447 736.629,280.28 746.5,282C 750.2,282.843 753.2,284.676 755.5,287.5 Z" />
    </g>
    <g>
        <path style="opacity:1" fill="#2097e9"
            d="M 346.5,278.5 C 341.516,281.995 336.182,284.995 330.5,287.5C 329.391,289.214 330.058,289.881 332.5,289.5C 331.916,294.212 330.416,294.545 328,290.5C 326.915,292.373 325.582,294.04 324,295.5C 323.667,295.167 323.333,294.833 323,294.5C 322.51,295.793 322.343,297.127 322.5,298.5C 319.948,298.355 317.615,297.855 315.5,297C 314.773,298.399 314.273,299.899 314,301.5C 312.951,300.483 311.784,300.316 310.5,301C 304.325,307.342 297.991,313.509 291.5,319.5C 306.003,300.743 324.337,287.076 346.5,278.5 Z" />
    </g>
    <g>
        <path style="opacity:1" fill="#2896da"
            d="M 514.5,317.5 C 529.073,328.386 533.24,342.386 527,359.5C 526.065,362.595 524.231,364.929 521.5,366.5C 522.624,360.984 524.791,355.984 528,351.5C 528.667,347.167 528.667,342.833 528,338.5C 527.368,336.469 526.201,334.802 524.5,333.5C 523.692,331.577 523.192,329.577 523,327.5C 519.528,324.543 516.695,321.21 514.5,317.5 Z" />
    </g>
    <g>
        <path style="opacity:1" fill="#1b96ea"
            d="M 291.5,319.5 C 291.146,321.541 291.146,323.374 291.5,325C 290.477,326.907 288.477,328.407 285.5,329.5C 284.472,331.44 284.472,333.44 285.5,335.5C 282.633,338.055 280.633,341.222 279.5,345C 279.82,346.653 280.82,347.653 282.5,348C 280.819,351.466 279.819,351.3 279.5,347.5C 274.866,348.509 272.366,351.509 272,356.5C 271.329,357.252 270.496,357.586 269.5,357.5C 274.298,343.221 281.631,330.554 291.5,319.5 Z" />
    </g>
    <g>
        <path style="opacity:1" fill="#2795dd"
            d="M 755.5,287.5 C 758.063,289.612 759.896,292.279 761,295.5C 764.426,316.513 763.26,337.179 757.5,357.5C 758.664,345.518 759.664,333.518 760.5,321.5C 760.663,315.883 759.996,310.383 758.5,305C 758.645,304.228 758.978,303.561 759.5,303C 757.228,300.659 756.894,297.992 758.5,295C 757.135,292.626 756.135,290.126 755.5,287.5 Z" />
    </g>
    <g>
        <path style="opacity:1" fill="#1b97ed"
            d="M 719.5,295.5 C 712.287,304.219 704.454,312.552 696,320.5C 695.517,321.448 695.351,322.448 695.5,323.5C 692.402,323.413 692.068,323.913 694.5,325C 691.772,325.639 691.272,326.806 693,328.5C 694.087,326.068 694.587,326.402 694.5,329.5C 691.915,329.432 689.582,328.932 687.5,328C 683.667,331.833 679.833,335.667 676,339.5C 676.148,340.825 675.982,341.992 675.5,343C 676.308,343.308 676.975,343.808 677.5,344.5C 676.011,344.533 674.678,345.033 673.5,346C 674.451,346.718 674.617,347.551 674,348.5C 671.5,349.667 669.667,351.5 668.5,354C 666.697,354.637 665.364,355.803 664.5,357.5C 663.672,356.585 662.672,355.919 661.5,355.5C 657.953,357.551 654.786,360.217 652,363.5C 651.666,365.847 651.833,368.181 652.5,370.5C 651.5,370.5 650.5,370.5 649.5,370.5C 649.869,368.007 649.203,367.34 647.5,368.5C 647.5,367.833 647.5,367.167 647.5,366.5C 670.943,342.055 694.943,318.389 719.5,295.5 Z" />
    </g>
    <g>
        <path style="opacity:1" fill="#269be8"
            d="M 425.5,366.5 C 409.626,360.855 394.293,362.188 379.5,370.5C 380.766,368.433 382.433,366.767 384.5,365.5C 394.096,361.334 404.096,360.334 414.5,362.5C 418.509,361.658 422.509,361.158 426.5,361C 423.076,362.412 422.742,364.245 425.5,366.5 Z" />
    </g>
    <g>
        <path style="opacity:1" fill="#2495e5"
            d="M 511.5,378.5 C 503.437,390.402 492.271,397.068 478,398.5C 475.967,398.494 474.134,398.161 472.5,397.5C 473.833,397.5 475.167,397.5 476.5,397.5C 476.281,396.325 476.614,395.325 477.5,394.5C 479.588,395.179 481.588,395.512 483.5,395.5C 487.489,394.172 491.489,392.838 495.5,391.5C 496.841,389.166 496.174,387.499 493.5,386.5C 496.815,384.694 499.149,382.027 500.5,378.5C 501.712,380.841 501.378,383.007 499.5,385C 502.308,385.92 504.475,385.087 506,382.5C 506.662,379.583 508.495,378.25 511.5,378.5 Z" />
    </g>
    <g>
        <path style="opacity:1" fill="#1997e8"
            d="M 379.5,370.5 C 360.774,387.465 356.774,407.465 367.5,430.5C 365.988,428.683 363.988,427.683 361.5,427.5C 361.702,425.011 361.202,422.677 360,420.5C 359.257,422.645 358.424,422.811 357.5,421C 357.8,418.976 358.633,418.476 360,419.5C 360.167,418.333 360.333,417.167 360.5,416C 358.948,412.695 357.948,408.528 357.5,403.5C 357.977,402.522 358.643,401.689 359.5,401C 359.167,400.667 358.833,400.333 358.5,400C 359.128,397.182 360.128,394.515 361.5,392C 359.96,387.243 361.627,384.41 366.5,383.5C 366.642,379.944 367.476,376.61 369,373.5C 369.483,374.448 369.649,375.448 369.5,376.5C 371.661,376.174 373.494,375.174 375,373.5C 375.483,372.552 375.649,371.552 375.5,370.5C 376.833,370.5 378.167,370.5 379.5,370.5 Z" />
    </g>
    <g>
        <path style="opacity:1" fill="#2595e1"
            d="M 757.5,357.5 C 753.21,376.075 745.21,392.742 733.5,407.5C 734.649,404.959 734.649,402.459 733.5,400C 734.849,399.228 735.682,398.061 736,396.5C 737.666,397.34 737.833,396.84 736.5,395C 738.39,393.109 739.89,390.942 741,388.5C 743.308,387.359 745.141,385.692 746.5,383.5C 750.477,377.071 752.977,370.071 754,362.5C 754.902,360.569 756.069,358.903 757.5,357.5 Z" />
    </g>
    <g>
        <path style="opacity:1" fill="#2396e3"
            d="M 733.5,407.5 C 728.105,416.617 721.105,424.283 712.5,430.5C 714.439,428.057 716.606,425.723 719,423.5C 719.483,422.552 719.649,421.552 719.5,420.5C 718.448,420.649 717.448,420.483 716.5,420C 718.307,417.724 719.807,417.557 721,419.5C 721.667,418.167 722.333,418.167 723,419.5C 722.852,418.175 723.018,417.008 723.5,416C 721.314,415.396 721.148,414.23 723,412.5C 723.71,413.973 724.876,414.64 726.5,414.5C 726.5,413.5 726.5,412.5 726.5,411.5C 727.552,411.649 728.552,411.483 729.5,411C 730.384,409.28 731.717,408.114 733.5,407.5 Z" />
    </g>
    <g>
        <path style="opacity:0.243" fill="#3495d6"
            d="M 264.5,375.5 C 261.491,397.945 262.158,420.279 266.5,442.5C 259.774,420.319 259.107,397.986 264.5,375.5 Z" />
    </g>
    <g>
        <path style="opacity:0.918" fill="#2d93d5"
            d="M 647.5,366.5 C 647.5,367.167 647.5,367.833 647.5,368.5C 624.5,390.833 601.833,413.5 579.5,436.5C 574.87,439.958 570.537,443.624 566.5,447.5C 593.113,420.221 620.113,393.221 647.5,366.5 Z" />
    </g>
    <g>
        <path style="opacity:0.161" fill="#2b8dcd"
            d="M 707.5,435.5 C 703.167,440.5 698.5,445.167 693.5,449.5C 693.393,447.097 694.393,445.264 696.5,444C 699.827,440.676 703.494,437.843 707.5,435.5 Z" />
    </g>
    <g>
        <path style="opacity:1" fill="#1a99ee"
            d="M 579.5,436.5 C 581.609,437.052 582.442,438.386 582,440.5C 579.667,441.5 578,443.167 577,445.5C 576.163,443.993 574.996,443.493 573.5,444C 570.675,445.474 570.342,446.974 572.5,448.5C 571.112,451.079 569.612,451.079 568,448.5C 567.759,451.289 567.092,453.956 566,456.5C 565.667,456.167 565.333,455.833 565,455.5C 564.56,457.076 563.727,458.41 562.5,459.5C 562.704,465.404 562.704,471.404 562.5,477.5C 561.732,476.737 561.232,475.737 561,474.5C 560.333,469.167 560.333,463.833 561,458.5C 561.81,454.213 563.643,450.546 566.5,447.5C 570.537,443.624 574.87,439.958 579.5,436.5 Z" />
    </g>
    <g>
        <path style="opacity:0.722" fill="#2e93d4"
            d="M 266.5,442.5 C 269.075,447.688 271.575,453.022 274,458.5C 274.49,459.793 274.657,461.127 274.5,462.5C 270.761,456.341 268.094,449.675 266.5,442.5 Z" />
    </g>
    <g>
        <path style="opacity:1" fill="#1c97e4"
            d="M 367.5,430.5 C 370.225,434.729 373.559,438.562 377.5,442C 383.652,446.323 389.319,451.157 394.5,456.5C 391.554,454.36 388.22,452.693 384.5,451.5C 383.571,450.311 383.238,448.978 383.5,447.5C 381.508,447.672 379.842,447.005 378.5,445.5C 376.405,446.229 374.572,445.563 373,443.5C 372.383,442.551 372.549,441.718 373.5,441C 372.049,441.263 370.716,441.096 369.5,440.5C 369.931,439.707 370.265,438.873 370.5,438C 368.249,435.998 367.249,433.498 367.5,430.5 Z" />
    </g>
    <g>
        <path style="opacity:1" fill="#2496e4"
            d="M 279.5,471.5 C 281.113,471.944 282.28,472.944 283,474.5C 283.333,473.833 283.667,473.167 284,472.5C 286.282,474.366 287.115,476.532 286.5,479C 288.477,481.428 290.81,483.428 293.5,485C 292.483,486.049 292.316,487.216 293,488.5C 295.367,491.932 298.034,492.265 301,489.5C 301.305,491.557 301.305,493.557 301,495.5C 307.388,501.386 313.554,506.553 319.5,511C 322.167,511.333 324.833,511.667 327.5,512C 326.5,512.333 325.5,512.667 324.5,513C 325.891,514.02 327.391,514.853 329,515.5C 328.474,517.227 328.641,518.894 329.5,520.5C 318.393,511.904 307.393,503.07 296.5,494C 289.44,487.455 283.773,479.955 279.5,471.5 Z" />
    </g>
    <g>
        <path style="opacity:1" fill="#1f97e6"
            d="M 562.5,477.5 C 563.15,477.804 563.817,478.137 564.5,478.5C 565.277,480.781 566.277,482.948 567.5,485C 568.449,485.617 569.282,485.451 570,484.5C 570.219,485.938 570.719,487.271 571.5,488.5C 573.306,487.141 574.806,487.475 576,489.5C 576.333,488.833 576.667,488.167 577,487.5C 578.583,491.951 580.749,495.951 583.5,499.5C 577.272,495.45 571.438,490.784 566,485.5C 564.519,482.89 563.352,480.223 562.5,477.5 Z" />
    </g>
    <g>
        <path style="opacity:1" fill="#1d97e4"
            d="M 692.5,472.5 C 704.112,481.112 715.112,490.446 725.5,500.5C 722.884,499.52 720.551,498.02 718.5,496C 717.234,495.691 716.067,495.191 715,494.5C 714.667,494.833 714.333,495.167 714,495.5C 710.481,489.27 705.315,485.27 698.5,483.5C 698.812,479.977 697.479,478.644 694.5,479.5C 693.579,477.223 692.913,474.89 692.5,472.5 Z" />
    </g>
    <g>
        <path style="opacity:1" fill="#2295de"
            d="M 583.5,499.5 C 586.114,499.277 587.781,500.444 588.5,503C 594.422,504.798 599.089,508.298 602.5,513.5C 604.006,514.747 605.506,514.747 607,513.5C 608.162,515.824 609.329,518.158 610.5,520.5C 612.851,523.402 615.684,524.069 619,522.5C 619.5,523 620,523.5 620.5,524C 619.328,525.868 619.495,527.702 621,529.5C 623.581,530.833 625.748,532.666 627.5,535C 633.775,536.192 637.775,539.692 639.5,545.5C 641.613,546.256 643.613,546.423 645.5,546C 646.357,546.689 647.023,547.522 647.5,548.5C 646.193,549.865 646.193,551.198 647.5,552.5C 625.578,535.581 604.245,517.914 583.5,499.5 Z" />
    </g>
    <g>
        <path style="opacity:1" fill="#1a98e7"
            d="M 394.5,456.5 C 441.818,495.821 488.818,535.487 535.5,575.5C 533.459,575.146 531.626,575.146 530,575.5C 529.25,574.874 528.416,574.374 527.5,574C 527.966,572.701 527.966,571.201 527.5,569.5C 525.801,569.66 524.134,569.494 522.5,569C 521.378,566.876 519.878,565.043 518,563.5C 517,564.167 516,564.833 515,565.5C 514.798,563.744 514.298,562.078 513.5,560.5C 512.914,560.709 512.414,561.043 512,561.5C 511.372,557.873 509.205,556.04 505.5,556C 506.337,554.989 506.67,553.822 506.5,552.5C 505.448,552.649 504.448,552.483 503.5,552C 500.748,549.316 498.081,546.65 495.5,544C 490.573,542.525 486.24,540.025 482.5,536.5C 483.462,534.117 482.462,533.117 479.5,533.5C 479.334,529.759 477.334,527.593 473.5,527C 472.965,524.891 471.965,524.391 470.5,525.5C 469.548,523.955 469.215,522.288 469.5,520.5C 467.459,520.146 465.626,520.146 464,520.5C 461.281,516.448 457.948,513.114 454,510.5C 453.667,510.833 453.333,511.167 453,511.5C 451.988,509.136 450.655,507.802 449,507.5C 448.667,507.833 448.333,508.167 448,508.5C 447.667,507.167 447.333,505.833 447,504.5C 442.892,499.686 438.058,495.686 432.5,492.5C 431.594,490.614 430.594,488.78 429.5,487C 420.283,481.024 411.949,474.69 404.5,468C 402.58,466.878 400.58,466.044 398.5,465.5C 398.649,464.448 398.483,463.448 398,462.5C 397.667,462.833 397.333,463.167 397,463.5C 394.347,461.579 393.513,459.246 394.5,456.5 Z" />
    </g>
    <g>
        <path style="opacity:1" fill="#2196e5"
            d="M 342.5,531.5 C 347.093,532.253 350.427,534.753 352.5,539C 355.844,539.667 358.511,541.334 360.5,544C 361.833,543.667 363.167,543.333 364.5,543C 364.957,543.414 365.291,543.914 365.5,544.5C 364.5,545.167 363.5,545.833 362.5,546.5C 363.857,548.186 365.19,549.852 366.5,551.5C 358.202,545.203 350.202,538.537 342.5,531.5 Z" />
    </g>
    <g>
        <path style="opacity:1" fill="#2596e0"
            d="M 647.5,552.5 C 649.844,553.672 652.177,553.672 654.5,552.5C 654.61,554.098 654.943,555.765 655.5,557.5C 657.559,558.567 659.392,559.9 661,561.5C 662.439,559.986 663.939,559.653 665.5,560.5C 664.189,561.258 663.689,562.258 664,563.5C 664.333,563.167 664.667,562.833 665,562.5C 669.804,567.975 674.638,573.475 679.5,579C 680.793,579.49 682.127,579.657 683.5,579.5C 684.374,585.081 686.708,589.914 690.5,594C 690.043,594.414 689.709,594.914 689.5,595.5C 690.154,604.364 690.82,613.197 691.5,622C 690.473,622.513 689.473,623.013 688.5,623.5C 692.683,603.214 687.016,586.381 671.5,573C 663.243,566.386 655.243,559.552 647.5,552.5 Z" />
    </g>
    <g>
        <path style="opacity:1" fill="#1e98e4"
            d="M 746.5,517.5 C 765.362,532.236 778.195,551.236 785,574.5C 791.658,598.522 792.158,622.522 786.5,646.5C 786.924,637.611 787.59,628.777 788.5,620C 788.412,615.192 787.746,610.525 786.5,606C 787.719,598.826 787.552,591.66 786,584.5C 783.665,580.184 782.332,575.518 782,570.5C 780.903,568.947 779.57,567.614 778,566.5C 777.798,564.744 777.298,563.078 776.5,561.5C 775.833,561.833 775.167,562.167 774.5,562.5C 773.236,556.642 771.403,550.975 769,545.5C 768.125,542.785 766.292,541.452 763.5,541.5C 761.816,538.784 760.65,535.784 760,532.5C 759.275,533.059 758.442,533.392 757.5,533.5C 755.728,532.64 754.395,531.307 753.5,529.5C 752.914,529.709 752.414,530.043 752,530.5C 751.691,529.234 751.191,528.067 750.5,527C 751.167,526.667 751.833,526.333 752.5,526C 750.431,525.676 750.098,524.842 751.5,523.5C 749.469,521.69 747.802,519.69 746.5,517.5 Z" />
    </g>
    <g>
        <path style="opacity:1" fill="#1f95e4"
            d="M 535.5,575.5 C 552.484,589.154 569.151,603.154 585.5,617.5C 583.436,617.313 581.436,616.813 579.5,616C 578.663,614.989 578.33,613.822 578.5,612.5C 573.999,612.557 571.332,610.39 570.5,606C 568.047,605.273 565.714,604.273 563.5,603C 560.22,598.012 556.053,593.845 551,590.5C 549.211,591.409 547.377,591.576 545.5,591C 546.956,590.577 547.456,589.744 547,588.5C 544.852,587.195 543.352,585.362 542.5,583C 541.552,582.517 540.552,582.351 539.5,582.5C 539.649,581.448 539.483,580.448 539,579.5C 536.929,578.897 535.762,577.564 535.5,575.5 Z" />
    </g>
    <g>
        <path style="opacity:0.829" fill="#2297e6"
            d="M 391.5,639.5 C 406.86,622.87 409.694,604.204 400,583.5C 398.667,581.5 397.333,579.5 396,577.5C 390.188,572.033 384.355,566.7 378.5,561.5C 380.143,561.52 381.476,560.853 382.5,559.5C 384.117,559.669 385.784,560.003 387.5,560.5C 386.5,561.333 385.5,562.167 384.5,563C 387.52,565.023 389.854,567.69 391.5,571C 393.387,571.163 394.887,570.329 396,568.5C 396.333,568.833 396.667,569.167 397,569.5C 396.845,571.811 396.845,574.144 397,576.5C 398.084,577.665 398.917,578.998 399.5,580.5C 400.325,581.386 401.325,581.719 402.5,581.5C 405.181,590.492 407.515,599.492 409.5,608.5C 408.145,612.44 406.978,616.44 406,620.5C 403.746,624.007 401.746,627.673 400,631.5C 397.932,635.07 395.099,637.737 391.5,639.5 Z" />
    </g>
    <g>
        <path style="opacity:1" fill="#2198e2"
            d="M 294.5,611.5 C 299.796,612.315 304.463,614.481 308.5,618C 315.833,624.667 323.167,631.333 330.5,638C 335.434,641.962 340.767,645.129 346.5,647.5C 344.143,647.663 341.81,647.497 339.5,647C 336.991,644.5 333.991,642.834 330.5,642C 325.935,638.223 321.602,634.223 317.5,630C 316.584,629.626 315.75,629.126 315,628.5C 313.636,629.258 312.469,628.758 311.5,627C 312.122,624.246 311.122,621.913 308.5,620C 303.903,616.877 299.237,614.043 294.5,611.5 Z" />
    </g>
    <g>
        <path style="opacity:1" fill="#2695e0"
            d="M 688.5,623.5 C 687.709,626.417 687.709,629.25 688.5,632C 686.68,633.805 685.514,635.972 685,638.5C 678.804,641.19 673.971,645.523 670.5,651.5C 669.833,651.167 669.167,650.833 668.5,650.5C 657.07,655.481 645.07,656.814 632.5,654.5C 630.307,654.229 628.641,653.229 627.5,651.5C 656.116,659.686 676.449,650.353 688.5,623.5 Z" />
    </g>
    <g>
        <path style="opacity:1" fill="#1c97e7"
            d="M 585.5,617.5 C 595.926,625.753 605.926,634.587 615.5,644C 619.396,646.775 623.396,649.275 627.5,651.5C 626.127,651.657 624.793,651.49 623.5,651C 620.383,649.027 617.216,647.193 614,645.5C 613.667,645.833 613.333,646.167 613,646.5C 610.243,641.514 606.41,638.514 601.5,637.5C 600.795,635.328 599.795,633.328 598.5,631.5C 594.76,628.733 591.093,626.067 587.5,623.5C 587.296,621.315 586.63,619.315 585.5,617.5 Z" />
    </g>
    <g>
        <path style="opacity:1" fill="#2397e6"
            d="M 390.5,639.5 C 389.604,642.069 387.938,644.069 385.5,645.5C 382.877,646.192 380.877,647.692 379.5,650C 376.491,649.84 374.325,651.007 373,653.5C 372.612,652.572 371.945,651.905 371,651.5C 369.699,651.96 368.366,652.294 367,652.5C 361.515,651.574 356.015,650.74 350.5,650C 348.934,649.392 347.6,648.558 346.5,647.5C 362.627,652.139 377.294,649.473 390.5,639.5 Z" />
    </g>
    <g>
        <path style="opacity:0.859" fill="#2396e6"
            d="M 294.5,611.5 C 290.99,611.332 287.49,610.999 284,610.5C 277.686,611.739 272.186,613.239 267.5,615C 262.893,618.635 263.56,620.302 269.5,620C 268.069,620.465 266.903,621.299 266,622.5C 264.867,620.789 263.367,620.289 261.5,621C 260.953,623.367 259.953,625.533 258.5,627.5C 254.875,629.295 251.375,631.295 248,633.5C 245.185,639.365 241.518,644.699 237,649.5C 234.658,659.362 235.158,669.029 238.5,678.5C 236.163,676.035 234.663,673.035 234,669.5C 231.646,658.338 233.979,648.338 241,639.5C 248.524,630.977 256.358,622.81 264.5,615C 274.147,609.423 284.147,608.256 294.5,611.5 Z" />
    </g>
    <g>
        <path style="opacity:1" fill="#2496e3"
            d="M 786.5,646.5 C 783.465,661.56 777.465,675.227 768.5,687.5C 770.827,683.668 772.493,679.501 773.5,675C 772.577,672.959 772.244,670.792 772.5,668.5C 774.124,668.36 775.29,669.027 776,670.5C 779.977,664.073 782.477,657.073 783.5,649.5C 784.735,648.66 785.735,647.66 786.5,646.5 Z" />
    </g>
    <g>
        <path style="opacity:1" fill="#2596de"
            d="M 490.5,676.5 C 484.174,684.158 477.508,691.492 470.5,698.5C 470.5,697.167 470.5,695.833 470.5,694.5C 473.346,694.191 474.846,692.525 475,689.5C 477.13,688.859 478.63,687.526 479.5,685.5C 480.325,684.614 481.325,684.281 482.5,684.5C 483.953,682.174 485.286,679.674 486.5,677C 487.793,676.51 489.127,676.343 490.5,676.5 Z" />
    </g>
    <g>
        <path style="opacity:1" fill="#2497e5"
            d="M 259.5,698.5 C 262.66,700.461 265.994,701.127 269.5,700.5C 268.624,701.251 267.624,701.751 266.5,702C 267.522,704.316 269.022,704.816 271,703.5C 271.689,704.357 272.522,705.023 273.5,705.5C 276.513,710.619 280.18,714.952 284.5,718.5C 282.745,717.928 281.078,717.094 279.5,716C 272.344,710.674 265.677,704.841 259.5,698.5 Z" />
    </g>
    <g>
        <path style="opacity:1" fill="#1d96eb"
            d="M 768.5,687.5 C 759.799,701.038 749.133,712.872 736.5,723C 732.193,726.483 727.527,729.317 722.5,731.5C 723.234,730.292 723.567,728.959 723.5,727.5C 725.167,727.5 726.833,727.5 728.5,727.5C 728.343,726.127 728.51,724.793 729,723.5C 731.965,723.911 734.632,722.911 737,720.5C 737.035,717.964 737.535,715.298 738.5,712.5C 739.822,712.67 740.989,712.337 742,711.5C 745.933,713.884 746.433,713.051 743.5,709C 745.348,706.821 747.515,704.987 750,703.5C 751.73,705.602 753.563,705.435 755.5,703C 758.768,699.49 760.768,695.656 761.5,691.5C 762.325,690.614 763.325,690.281 764.5,690.5C 764.351,689.448 764.517,688.448 765,687.5C 765.986,688.171 767.153,688.171 768.5,687.5 Z" />
    </g>
    <g>
        <path style="opacity:1" fill="#1796ee"
            d="M 527.5,688.5 C 528.833,688.5 530.167,688.5 531.5,688.5C 531.5,689.5 531.5,690.5 531.5,691.5C 532.873,691.343 534.207,691.51 535.5,692C 538.486,693.808 540.486,696.308 541.5,699.5C 543.467,699.739 545.301,699.406 547,698.5C 547.617,699.449 547.451,700.282 546.5,701C 548.644,702.146 550.477,703.646 552,705.5C 553.663,704.01 555.33,703.344 557,703.5C 557.019,706.308 558.019,708.641 560,710.5C 562.064,709.409 564.231,709.242 566.5,710C 567.554,711.388 567.72,712.888 567,714.5C 565.951,713.483 564.784,713.316 563.5,714C 564.167,714.333 564.833,714.667 565.5,715C 564.91,717.617 566.077,719.45 569,720.5C 570.882,719.394 572.716,719.394 574.5,720.5C 573.624,721.251 572.624,721.751 571.5,722C 573.5,722.667 574.833,724 575.5,726C 576.167,726.167 576.833,726.333 577.5,726.5C 578.949,724.751 580.282,724.584 581.5,726C 579.963,727.11 579.297,728.61 579.5,730.5C 574.882,728.185 570.549,725.352 566.5,722C 553.308,710.968 540.308,699.802 527.5,688.5 Z" />
    </g>
    <g>
        <path style="opacity:1" fill="#2593e0"
            d="M 446.5,719.5 C 437.835,726.463 428.169,731.796 417.5,735.5C 414.371,730.669 415.204,729.669 420,732.5C 428.976,728.261 437.809,723.928 446.5,719.5 Z" />
    </g>
    <g>
        <path style="opacity:1" fill="#2798e3"
            d="M 284.5,718.5 C 286.401,718.433 288.234,718.767 290,719.5C 293.171,722.006 296.338,724.506 299.5,727C 302.85,727.25 306.017,728.083 309,729.5C 309.333,729.167 309.667,728.833 310,728.5C 310.481,730.478 311.647,731.811 313.5,732.5C 315.56,731.472 317.56,731.472 319.5,732.5C 318.624,733.251 317.624,733.751 316.5,734C 320.469,736.14 324.469,737.973 328.5,739.5C 312.209,735.686 297.542,728.686 284.5,718.5 Z" />
    </g>
    <g>
        <path style="opacity:1" fill="#2b96df"
            d="M 580.5,731.5 C 582.199,731.34 583.866,731.506 585.5,732C 595.616,737.65 606.282,742.317 617.5,746C 620.167,746.333 622.833,746.667 625.5,747C 624.944,747.383 624.611,747.883 624.5,748.5C 608.71,745.573 594.043,739.906 580.5,731.5 Z" />
    </g>
    <g>
        <path style="opacity:0.663" fill="#2b96d7"
            d="M 722.5,731.5 C 717.097,735.535 711.097,738.535 704.5,740.5C 709.123,738.183 713.456,735.35 717.5,732C 719.134,731.506 720.801,731.34 722.5,731.5 Z" />
    </g>
    <g>
        <path style="opacity:1" fill="#2499e6"
            d="M 407.5,738.5 C 381.277,747.368 354.944,747.701 328.5,739.5C 345.798,741.729 363.132,742.729 380.5,742.5C 389.587,741.708 398.587,740.374 407.5,738.5 Z" />
    </g>
    <g>
        <path style="opacity:0.424" fill="#3098de"
            d="M 696.5,743.5 C 673.814,751.433 650.481,753.433 626.5,749.5C 637.979,749.484 649.646,749.317 661.5,749C 673.167,747.234 684.833,745.4 696.5,743.5 Z" />
    </g>
    <g>
        <path style="opacity:0.741" fill="#2e98db"
            d="M 526.5,848.5 C 523.512,847.839 520.512,847.172 517.5,846.5C 515.159,847.182 512.826,847.849 510.5,848.5C 510.725,850.716 509.892,852.383 508,853.5C 507.503,856.146 507.336,858.813 507.5,861.5C 504.234,852.069 507.734,846.402 518,844.5C 521.404,844.872 524.237,846.206 526.5,848.5 Z" />
    </g>
    <g>
        <path style="opacity:1" fill="#1197f5"
            d="M 526.5,848.5 C 532.293,858.598 529.46,865.265 518,868.5C 512.956,868.244 509.456,865.911 507.5,861.5C 507.336,858.813 507.503,856.146 508,853.5C 509.892,852.383 510.725,850.716 510.5,848.5C 512.826,847.849 515.159,847.182 517.5,846.5C 520.512,847.172 523.512,847.839 526.5,848.5 Z" />
    </g>
    <g>
        <path style="opacity:0.578" fill="#3a9fd1"
            d="M 751.5,855.5 C 747.893,854.176 743.893,853.509 739.5,853.5C 735.5,853.667 731.5,853.833 727.5,854C 726.167,856.191 724.5,858.024 722.5,859.5C 723.826,854.01 727.326,851.343 733,851.5C 739.626,852.347 746.46,852.68 753.5,852.5C 753.715,854.179 753.048,855.179 751.5,855.5 Z" />
    </g>
    <g>
        <path style="opacity:1" fill="#0898fa"
            d="M 300.5,853.5 C 309.725,853.388 318.725,854.388 327.5,856.5C 327.5,857.5 327.5,858.5 327.5,859.5C 332.995,859.211 337.328,861.211 340.5,865.5C 338.928,867.974 337.928,870.64 337.5,873.5C 336.5,875.167 335.167,876.5 333.5,877.5C 330.85,876.753 328.184,875.753 325.5,874.5C 327.027,872.67 326.527,871.67 324,871.5C 316.684,870.541 309.184,870.541 301.5,871.5C 298.755,872.818 297.088,874.985 296.5,878C 297.615,880.101 297.615,882.267 296.5,884.5C 296.76,886.187 297.427,887.687 298.5,889C 310.454,891.511 322.787,895.011 335.5,899.5C 347.42,908.793 349.587,920.126 342,933.5C 340.465,936.294 338.298,938.294 335.5,939.5C 333.533,939.739 331.699,939.406 330,938.5C 329.25,939.126 328.416,939.626 327.5,940C 328.833,940.667 328.833,941.333 327.5,942C 321.679,945.455 315.345,946.788 308.5,946C 309.328,945.085 310.328,944.419 311.5,944C 310.5,943.833 309.5,943.667 308.5,943.5C 303.987,943.674 299.487,944.007 295,944.5C 292.276,943.313 289.443,942.647 286.5,942.5C 280.219,941.365 275.885,937.865 273.5,932C 275.298,923.986 279.965,920.152 287.5,920.5C 288.479,922.145 289.812,923.479 291.5,924.5C 291.167,925.167 290.833,925.833 290.5,926.5C 301.146,928.878 311.813,929.045 322.5,927C 322.034,925.701 322.034,924.201 322.5,922.5C 322.5,920.5 322.5,918.5 322.5,916.5C 322.649,915.448 322.483,914.448 322,913.5C 319.65,911.317 317.483,908.984 315.5,906.5C 314.784,907.311 313.95,907.978 313,908.5C 306.981,905.178 300.481,903.512 293.5,903.5C 290.243,902.538 287.243,901.038 284.5,899C 282.859,897.871 281.859,896.371 281.5,894.5C 278.662,887.496 277.828,880.163 279,872.5C 280.903,870.559 281.736,868.226 281.5,865.5C 285.705,858.323 292.038,854.323 300.5,853.5 Z" />
    </g>
    <g>
        <path style="opacity:1" fill="#0b98f8"
            d="M 668.5,851.5 C 669.167,851.5 669.5,851.833 669.5,852.5C 675.094,853.093 680.761,853.926 686.5,855C 689.647,857.601 690.647,860.768 689.5,864.5C 690.325,865.386 691.325,865.719 692.5,865.5C 692.808,869.009 694.808,870.676 698.5,870.5C 701.47,874.32 704.304,878.32 707,882.5C 711.694,874.422 716.861,866.756 722.5,859.5C 724.5,858.024 726.167,856.191 727.5,854C 731.5,853.833 735.5,853.667 739.5,853.5C 743.893,853.509 747.893,854.176 751.5,855.5C 741.238,868.939 730.738,882.273 720,895.5C 719.333,897.167 719.333,898.833 720,900.5C 721.421,902.405 722.588,904.405 723.5,906.5C 724.576,909.871 725.576,913.204 726.5,916.5C 727.5,916.5 728.5,916.5 729.5,916.5C 728.81,919.591 727.643,922.258 726,924.5C 726.667,925.167 727.333,925.833 728,926.5C 728.448,924.776 729.282,924.109 730.5,924.5C 730.291,923.914 729.957,923.414 729.5,923C 733.056,922.218 734.889,923.718 735,927.5C 735.333,927.167 735.667,926.833 736,926.5C 740.695,930.03 744.862,934.03 748.5,938.5C 749.933,940.558 750.6,942.892 750.5,945.5C 744.158,945.666 737.825,945.5 731.5,945C 727.324,940.991 723.324,936.824 719.5,932.5C 715.654,926.831 711.321,921.497 706.5,916.5C 699.144,926.032 692.144,935.865 685.5,946C 676.582,947.414 667.582,947.914 658.5,947.5C 658.351,946.448 658.517,945.448 659,944.5C 668.031,933.31 677.198,922.31 686.5,911.5C 687.802,910.193 689.135,910.193 690.5,911.5C 692.421,909.531 692.421,908.031 690.5,907C 695.117,902.907 696.784,897.907 695.5,892C 692.636,889.794 689.803,887.628 687,885.5C 686.32,883.024 687.153,881.191 689.5,880C 687.203,879.982 684.869,880.149 682.5,880.5C 679.8,878.766 677.8,876.432 676.5,873.5C 672.935,868.414 669.935,862.414 667.5,855.5C 666.127,855.657 664.793,855.49 663.5,855C 665.596,854.263 667.263,853.097 668.5,851.5 Z" />
    </g>
    <g>
        <path style="opacity:1" fill="#2797e0"
            d="M 337.5,873.5 C 337.928,870.64 338.928,867.974 340.5,865.5C 337.328,861.211 332.995,859.211 327.5,859.5C 327.5,858.5 327.5,857.5 327.5,856.5C 318.725,854.388 309.725,853.388 300.5,853.5C 313.05,850.509 325.05,852.342 336.5,859C 344.07,863.264 344.403,868.097 337.5,873.5 Z" />
    </g>
    <g>
        <path style="opacity:1" fill="#2298e1"
            d="M 698.5,870.5 C 694.808,870.676 692.808,869.009 692.5,865.5C 691.325,865.719 690.325,865.386 689.5,864.5C 690.647,860.768 689.647,857.601 686.5,855C 680.761,853.926 675.094,853.093 669.5,852.5C 673.263,852.468 677.096,852.135 681,851.5C 683.124,852.227 685.291,852.894 687.5,853.5C 691.613,858.933 695.28,864.599 698.5,870.5 Z" />
    </g>
    <g>
        <path style="opacity:0.542" fill="#2c94d6"
            d="M 622.5,848.5 C 628.568,847.174 634.734,847.174 641,848.5C 641.5,874.831 641.667,901.165 641.5,927.5C 640.798,901.313 640.131,874.98 639.5,848.5C 633.833,848.5 628.167,848.5 622.5,848.5 Z" />
    </g>
    <g>
        <path style="opacity:0.286" fill="#2698df"
            d="M 668.5,851.5 C 667.263,853.097 665.596,854.263 663.5,855C 664.793,855.49 666.127,855.657 667.5,855.5C 669.935,862.414 672.935,868.414 676.5,873.5C 670.698,866.857 665.031,860.023 659.5,853C 662.391,852.277 665.391,851.777 668.5,851.5 Z" />
    </g>
    <g>
        <path style="opacity:1" fill="#2895e0"
            d="M 494.5,893.5 C 498.284,884.244 494.95,879.911 484.5,880.5C 484.412,877.691 482.912,876.358 480,876.5C 474.589,876.601 469.089,876.768 463.5,877C 455.936,879.713 448.936,883.546 442.5,888.5C 447.16,881.315 453.826,876.815 462.5,875C 475.987,872.278 487.821,875.444 498,884.5C 499.041,888.41 497.875,891.41 494.5,893.5 Z" />
    </g>
    <g>
        <path style="opacity:1" fill="#0997f9"
            d="M 401.5,876.5 C 404.142,877.895 406.809,879.395 409.5,881C 411.348,885.68 414.681,888.847 419.5,890.5C 422.624,896.112 424.624,902.112 425.5,908.5C 425.647,911.253 424.98,913.753 423.5,916C 424.022,916.561 424.355,917.228 424.5,918C 423.081,923.221 421.747,927.721 420.5,931.5C 419.178,931.67 418.011,931.337 417,930.5C 416.383,931.449 416.549,932.282 417.5,933C 416.141,934.204 415.141,935.704 414.5,937.5C 411.182,934.641 410.182,935.308 411.5,939.5C 409.994,940.747 408.494,940.747 407,939.5C 406.5,940 406,940.5 405.5,941C 406.684,942.145 406.684,943.312 405.5,944.5C 404.22,945.931 402.553,946.598 400.5,946.5C 393.825,946.666 387.158,946.5 380.5,946C 378.091,944.293 375.425,943.46 372.5,943.5C 368.637,942.306 365.637,939.973 363.5,936.5C 360.525,932.405 359.025,927.739 359,922.5C 358.08,922.07 357.247,921.736 356.5,921.5C 356.727,919.329 357.06,917.162 357.5,915C 356.551,914.383 355.718,914.549 355,915.5C 354.231,909.057 354.731,902.723 356.5,896.5C 362.673,881.866 373.84,874.532 390,874.5C 394.133,874.286 397.966,874.952 401.5,876.5 Z M 400.5,895.5 C 407.675,903.029 409.342,911.695 405.5,921.5C 398.616,930.124 390.283,931.957 380.5,927C 373.963,921.245 371.797,914.078 374,905.5C 379.36,893.114 388.193,889.781 400.5,895.5 Z" />
    </g>
    <g>
        <path style="opacity:1" fill="#0997fa"
            d="M 605.5,876.5 C 605.461,878.359 606.294,879.692 608,880.5C 608.5,902.164 608.667,923.831 608.5,945.5C 603.167,945.5 597.833,945.5 592.5,945.5C 592.5,943.167 592.5,940.833 592.5,938.5C 588.798,938.226 586.465,939.892 585.5,943.5C 581.15,944.371 576.817,945.371 572.5,946.5C 568.412,946.414 564.579,945.414 561,943.5C 560.439,944.022 559.772,944.355 559,944.5C 554.922,941.423 550.589,938.756 546,936.5C 545.316,935.216 545.483,934.049 546.5,933C 541.681,931.364 539.681,928.03 540.5,923C 540.654,920.621 541.32,918.454 542.5,916.5C 541.833,915.833 541.167,915.167 540.5,914.5C 541.641,913.575 541.641,912.741 540.5,912C 542.686,911.396 542.852,910.23 541,908.5C 538.852,909.977 537.518,911.977 537,914.5C 536.833,913.667 536.667,912.833 536.5,912C 537.363,906.119 538.363,900.286 539.5,894.5C 542.917,890.868 546.25,887.035 549.5,883C 551.48,881.175 553.813,880.341 556.5,880.5C 556.5,879.5 556.5,878.5 556.5,877.5C 558.148,876.073 560.148,875.24 562.5,875C 572.804,872.783 581.971,874.95 590,881.5C 590.622,879.269 591.789,877.435 593.5,876C 597.689,875.188 601.689,875.355 605.5,876.5 Z M 570.5,892.5 C 587.042,894.225 593.209,903.225 589,919.5C 581.166,931.708 571.5,933.374 560,924.5C 554.091,915.722 554.258,907.056 560.5,898.5C 563.311,895.436 566.645,893.436 570.5,892.5 Z" />
    </g>
    <g>
        <path style="opacity:1" fill="#0598fa"
            d="M 515.5,875.5 C 518.167,875.5 520.833,875.5 523.5,875.5C 523.908,876.643 524.575,877.643 525.5,878.5C 526.5,900.823 526.833,923.157 526.5,945.5C 526.389,946.117 526.056,946.617 525.5,947C 520.447,946.891 515.78,947.058 511.5,947.5C 511.25,946.078 510.417,945.078 509,944.5C 508.333,922.5 508.333,900.5 509,878.5C 511.045,877.074 513.212,876.074 515.5,875.5 Z" />
    </g>
    <g>
        <path style="opacity:0.827" fill="#2a91d7"
            d="M 556.5,877.5 C 556.5,878.5 556.5,879.5 556.5,880.5C 553.813,880.341 551.48,881.175 549.5,883C 546.25,887.035 542.917,890.868 539.5,894.5C 542.833,886.5 548.5,880.833 556.5,877.5 Z" />
    </g>
    <g>
        <path style="opacity:0.678" fill="#3297d9"
            d="M 281.5,865.5 C 281.736,868.226 280.903,870.559 279,872.5C 277.828,880.163 278.662,887.496 281.5,894.5C 277.983,890.793 276.316,886.293 276.5,881C 276.582,877.765 277.082,874.598 278,871.5C 278.424,868.975 279.59,866.975 281.5,865.5 Z" />
    </g>
    <g>
        <path style="opacity:1" fill="#2695e0"
            d="M 686.5,911.5 C 689.15,907.178 691.816,902.844 694.5,898.5C 690.876,892.217 686.876,886.217 682.5,880.5C 684.869,880.149 687.203,879.982 689.5,880C 687.153,881.191 686.32,883.024 687,885.5C 689.803,887.628 692.636,889.794 695.5,892C 696.784,897.907 695.117,902.907 690.5,907C 692.421,908.031 692.421,909.531 690.5,911.5C 689.135,910.193 687.802,910.193 686.5,911.5 Z" />
    </g>
    <g>
        <path style="opacity:1" fill="#1d94e6"
            d="M 622.5,848.5 C 628.167,848.5 633.833,848.5 639.5,848.5C 640.131,874.98 640.798,901.313 641.5,927.5C 643.504,928.673 645.004,930.34 646,932.5C 646.607,937.47 646.107,942.303 644.5,947C 632.767,949.313 625.434,944.813 622.5,933.5C 621.167,905.167 621.167,876.833 622.5,848.5 Z" />
    </g>
    <g>
        <path style="opacity:1" fill="#0297fc"
            d="M 622.5,933.5 C 621.829,906.052 622.662,878.719 625,851.5C 629.533,850.357 634.033,850.69 638.5,852.5C 639.059,877.965 639.726,903.465 640.5,929C 640.167,929.333 639.833,929.667 639.5,930C 643.124,932.538 644.124,935.872 642.5,940C 645.041,943.75 643.874,945.917 639,946.5C 635.002,945.259 631.169,943.925 627.5,942.5C 626.271,939.267 624.604,936.267 622.5,933.5 Z" />
    </g>
    <g>
        <path style="opacity:0.149" fill="#3193cd"
            d="M 523.5,875.5 C 525.017,875.511 526.184,876.177 527,877.5C 527.83,900.337 527.663,923.004 526.5,945.5C 526.833,923.157 526.5,900.823 525.5,878.5C 524.575,877.643 523.908,876.643 523.5,875.5 Z" />
    </g>
    <g>
        <path style="opacity:1" fill="#2096e1"
            d="M 333.5,877.5 C 325.538,875.851 317.538,874.184 309.5,872.5C 300.97,872.576 298.136,876.576 301,884.5C 307.47,888.883 314.636,891.717 322.5,893C 327.173,894.67 331.507,896.837 335.5,899.5C 322.787,895.011 310.454,891.511 298.5,889C 297.427,887.687 296.76,886.187 296.5,884.5C 297.615,882.267 297.615,880.101 296.5,878C 297.088,874.985 298.755,872.818 301.5,871.5C 309.184,870.541 316.684,870.541 324,871.5C 326.527,871.67 327.027,872.67 325.5,874.5C 328.184,875.753 330.85,876.753 333.5,877.5 Z" />
    </g>
    <g>
        <path style="opacity:1" fill="#0597fb"
            d="M 494.5,893.5 C 490.232,894.373 485.898,894.706 481.5,894.5C 481.719,893.325 481.386,892.325 480.5,891.5C 476.564,893.356 473.731,892.356 472,888.5C 469.503,893.01 465.669,894.843 460.5,894C 462.014,892.561 462.347,891.061 461.5,889.5C 456.471,893.579 454.138,898.912 454.5,905.5C 453.448,905.351 452.448,905.517 451.5,906C 451.228,908.606 451.228,911.272 451.5,914C 449.216,915.363 449.049,916.863 451,918.5C 451.414,918.043 451.914,917.709 452.5,917.5C 453.429,918.689 453.762,920.022 453.5,921.5C 454.959,921.433 456.292,921.766 457.5,922.5C 458.706,925.298 460.706,927.465 463.5,929C 469.167,929.667 474.833,929.667 480.5,929C 483.312,927.451 486.312,926.618 489.5,926.5C 490.167,926.5 490.833,926.5 491.5,926.5C 492.439,929.241 494.273,931.241 497,932.5C 497.667,934.167 497.667,935.833 497,937.5C 494.273,938.759 492.439,940.759 491.5,943.5C 487.137,945.843 482.47,947.176 477.5,947.5C 466.225,948.521 456.558,945.187 448.5,937.5C 447.614,936.675 447.281,935.675 447.5,934.5C 446.022,934.762 444.689,934.429 443.5,933.5C 442.212,931.048 440.546,929.048 438.5,927.5C 436.308,917.574 435.975,907.574 437.5,897.5C 437.928,893.756 439.595,890.756 442.5,888.5C 448.936,883.546 455.936,879.713 463.5,877C 469.089,876.768 474.589,876.601 480,876.5C 482.912,876.358 484.412,877.691 484.5,880.5C 494.95,879.911 498.284,884.244 494.5,893.5 Z" />
    </g>
    <g>
        <path style="opacity:1" fill="#1e95e2"
            d="M 605.5,876.5 C 606.5,876.5 607.5,876.5 608.5,876.5C 609.479,899.455 609.813,922.455 609.5,945.5C 609.389,946.117 609.056,946.617 608.5,947C 603.167,947.667 597.833,947.667 592.5,947C 590.926,945.174 590.093,943.007 590,940.5C 588.871,942.141 587.371,943.141 585.5,943.5C 586.465,939.892 588.798,938.226 592.5,938.5C 592.5,940.833 592.5,943.167 592.5,945.5C 597.833,945.5 603.167,945.5 608.5,945.5C 608.667,923.831 608.5,902.164 608,880.5C 606.294,879.692 605.461,878.359 605.5,876.5 Z" />
    </g>
    <g>
        <path style="opacity:0.293" fill="#2f93d5"
            d="M 515.5,875.5 C 513.212,876.074 511.045,877.074 509,878.5C 508.333,900.5 508.333,922.5 509,944.5C 510.417,945.078 511.25,946.078 511.5,947.5C 510.279,946.972 509.113,946.305 508,945.5C 507.167,922.493 507.334,899.493 508.5,876.5C 510.747,875.626 513.08,875.292 515.5,875.5 Z" />
    </g>
    <g>
        <path style="opacity:0.196" fill="#3b8ec4"
            d="M 608.5,876.5 C 609.117,876.611 609.617,876.944 610,877.5C 610.83,900.337 610.663,923.004 609.5,945.5C 609.813,922.455 609.479,899.455 608.5,876.5 Z" />
    </g>
    <g>
        <path style="opacity:1" fill="#2596e3"
            d="M 293.5,903.5 C 300.481,903.512 306.981,905.178 313,908.5C 313.95,907.978 314.784,907.311 315.5,906.5C 317.483,908.984 319.65,911.317 322,913.5C 322.483,914.448 322.649,915.448 322.5,916.5C 320.639,914.216 318.305,912.382 315.5,911C 307.894,908.965 300.56,906.465 293.5,903.5 Z" />
    </g>
    <g>
        <path style="opacity:0.941" fill="#2d94d9"
            d="M 437.5,897.5 C 435.975,907.574 436.308,917.574 438.5,927.5C 435.724,922.478 434.39,916.978 434.5,911C 434.594,907.112 435.094,903.279 436,899.5C 436.278,898.584 436.778,897.918 437.5,897.5 Z" />
    </g>
    <g>
        <path style="opacity:1" fill="#2896e3"
            d="M 356.5,896.5 C 354.731,902.723 354.231,909.057 355,915.5C 355.718,914.549 356.551,914.383 357.5,915C 357.06,917.162 356.727,919.329 356.5,921.5C 357.247,921.736 358.08,922.07 359,922.5C 359.025,927.739 360.525,932.405 363.5,936.5C 360.291,933.772 357.791,930.439 356,926.5C 351.855,916.358 352.022,906.358 356.5,896.5 Z" />
    </g>
    <g>
        <path style="opacity:1" fill="#1e96e7"
            d="M 494.5,893.5 C 493.942,894.79 492.942,895.623 491.5,896C 484.916,896.525 478.416,896.025 472,894.5C 459.01,895.495 453.344,902.495 455,915.5C 455.847,917.854 456.68,920.188 457.5,922.5C 456.292,921.766 454.959,921.433 453.5,921.5C 453.762,920.022 453.429,918.689 452.5,917.5C 451.914,917.709 451.414,918.043 451,918.5C 449.049,916.863 449.216,915.363 451.5,914C 451.228,911.272 451.228,908.606 451.5,906C 452.448,905.517 453.448,905.351 454.5,905.5C 454.138,898.912 456.471,893.579 461.5,889.5C 462.347,891.061 462.014,892.561 460.5,894C 465.669,894.843 469.503,893.01 472,888.5C 473.731,892.356 476.564,893.356 480.5,891.5C 481.386,892.325 481.719,893.325 481.5,894.5C 485.898,894.706 490.232,894.373 494.5,893.5 Z" />
    </g>
    <g>
        <path style="opacity:1" fill="#2493de"
            d="M 401.5,876.5 C 417.986,881.924 426.653,893.424 427.5,911C 427.009,926.851 419.676,938.018 405.5,944.5C 406.684,943.312 406.684,942.145 405.5,941C 406,940.5 406.5,940 407,939.5C 408.494,940.747 409.994,940.747 411.5,939.5C 410.182,935.308 411.182,934.641 414.5,937.5C 415.141,935.704 416.141,934.204 417.5,933C 416.549,932.282 416.383,931.449 417,930.5C 418.011,931.337 419.178,931.67 420.5,931.5C 421.747,927.721 423.081,923.221 424.5,918C 424.355,917.228 424.022,916.561 423.5,916C 424.98,913.753 425.647,911.253 425.5,908.5C 424.624,902.112 422.624,896.112 419.5,890.5C 414.681,888.847 411.348,885.68 409.5,881C 406.809,879.395 404.142,877.895 401.5,876.5 Z" />
    </g>
    <g>
        <path style="opacity:1" fill="#2596e5"
            d="M 539.5,894.5 C 538.363,900.286 537.363,906.119 536.5,912C 536.667,912.833 536.833,913.667 537,914.5C 537.518,911.977 538.852,909.977 541,908.5C 542.852,910.23 542.686,911.396 540.5,912C 541.641,912.741 541.641,913.575 540.5,914.5C 541.167,915.167 541.833,915.833 542.5,916.5C 541.32,918.454 540.654,920.621 540.5,923C 539.681,928.03 541.681,931.364 546.5,933C 545.483,934.049 545.316,935.216 546,936.5C 550.589,938.756 554.922,941.423 559,944.5C 559.772,944.355 560.439,944.022 561,943.5C 564.579,945.414 568.412,946.414 572.5,946.5C 576.817,945.371 581.15,944.371 585.5,943.5C 570.715,951.444 557.215,949.444 545,937.5C 534.881,924.11 533.048,909.777 539.5,894.5 Z" />
    </g>
    <g>
        <path style="opacity:1" fill="#3094d8"
            d="M 400.5,895.5 C 404.657,897.435 407.157,900.769 408,905.5C 408.667,910.167 408.667,914.833 408,919.5C 407.583,920.756 406.75,921.423 405.5,921.5C 409.342,911.695 407.675,903.029 400.5,895.5 Z" />
    </g>
    <g>
        <path style="opacity:1" fill="#1c9ae6"
            d="M 723.5,906.5 C 732.59,916.588 740.923,927.255 748.5,938.5C 744.862,934.03 740.695,930.03 736,926.5C 735.667,926.833 735.333,927.167 735,927.5C 734.889,923.718 733.056,922.218 729.5,923C 729.957,923.414 730.291,923.914 730.5,924.5C 729.282,924.109 728.448,924.776 728,926.5C 727.333,925.833 726.667,925.167 726,924.5C 727.643,922.258 728.81,919.591 729.5,916.5C 728.5,916.5 727.5,916.5 726.5,916.5C 725.576,913.204 724.576,909.871 723.5,906.5 Z" />
    </g>
    <g>
        <path style="opacity:0.184" fill="#2595e2"
            d="M 287.5,920.5 C 296.307,926.284 305.974,928.451 316.5,927C 319.146,926.196 321.146,924.696 322.5,922.5C 322.034,924.201 322.034,925.701 322.5,927C 311.813,929.045 301.146,928.878 290.5,926.5C 290.833,925.833 291.167,925.167 291.5,924.5C 289.812,923.479 288.479,922.145 287.5,920.5 Z" />
    </g>
    <g>
        <path style="opacity:0.345" fill="#3494d0"
            d="M 457.5,922.5 C 463.431,928.09 470.431,929.923 478.5,928C 482.179,926.012 485.845,925.512 489.5,926.5C 486.312,926.618 483.312,927.451 480.5,929C 474.833,929.667 469.167,929.667 463.5,929C 460.706,927.465 458.706,925.298 457.5,922.5 Z" />
    </g>
    <g>
        <path style="opacity:0.988" fill="#3694cb"
            d="M 491.5,926.5 C 502.167,932.167 502.167,937.833 491.5,943.5C 492.439,940.759 494.273,938.759 497,937.5C 497.667,935.833 497.667,934.167 497,932.5C 494.273,931.241 492.439,929.241 491.5,926.5 Z" />
    </g>
    <g>
        <path style="opacity:1" fill="#2899ea"
            d="M 335.5,939.5 C 333.422,942.051 330.756,943.884 327.5,945C 313.357,950.115 299.691,949.282 286.5,942.5C 289.443,942.647 292.276,943.313 295,944.5C 299.487,944.007 303.987,943.674 308.5,943.5C 309.5,943.667 310.5,943.833 311.5,944C 310.328,944.419 309.328,945.085 308.5,946C 315.345,946.788 321.679,945.455 327.5,942C 328.833,941.333 328.833,940.667 327.5,940C 328.416,939.626 329.25,939.126 330,938.5C 331.699,939.406 333.533,939.739 335.5,939.5 Z" />
    </g>
    <g>
        <path style="opacity:0.027" fill="#3499dc"
            d="M 438.5,927.5 C 440.546,929.048 442.212,931.048 443.5,933.5C 444.689,934.429 446.022,934.762 447.5,934.5C 447.281,935.675 447.614,936.675 448.5,937.5C 456.558,945.187 466.225,948.521 477.5,947.5C 463.46,949.649 451.627,945.316 442,934.5C 440.295,932.423 439.128,930.09 438.5,927.5 Z" />
    </g>
    <g>
        <path style="opacity:0.909" fill="#349adb"
            d="M 372.5,943.5 C 375.425,943.46 378.091,944.293 380.5,946C 387.158,946.5 393.825,946.666 400.5,946.5C 395.439,948.423 390.105,948.923 384.5,948C 380,947.559 376,946.059 372.5,943.5 Z" />
    </g>
    <g>
        <path style="opacity:0.055" fill="#309fdb"
            d="M 719.5,932.5 C 723.324,936.824 727.324,940.991 731.5,945C 737.825,945.5 744.158,945.666 750.5,945.5C 750.6,942.892 749.933,940.558 748.5,938.5C 751.287,940.72 753.62,943.386 755.5,946.5C 747.187,947.665 738.853,947.832 730.5,947C 725.989,942.812 722.322,937.979 719.5,932.5 Z" />
    </g>
</svg>